<svg width="320" height="142" viewBox="0 0 320 142" fill="none" xmlns="http://www.w3.org/2000/svg">
<path d="M92.31 25.53L92 25.65L92.03 25.97L123.42 97.13L125.09 101.34L124.88 101.71H124.83H58.41L57.87 101.52L57.92 100.96L66.72 81.6L67.06 81.19L67.56 81.06H92.29L92.85 80.86L92.8 80.27L71.35 32.52L71.04 32L70.73 31.83L70.42 32L70.11 32.51L22.8 136.67L22.32 137.22L21.62 137.43H0.47998L0.369995 137.42L0.00997925 137.14L0 136.69L59.88 4.87L60.27 4.42999L60.83 4.26001L165.28 4.16L173.03 4.45999L176.12 4.85001L178.68 5.41L182.25 6.56L185.65 7.95999L188.86 9.62L191.9 11.54L195.43 14.28L198.69 17.42L201.67 20.96L204.37 24.89L204.6 25.07L204.85 24.92L208.55 20.86L212.53 17.15L216.84 13.72L221.39 10.65L226.2 7.92001L231.19 5.59L236.34 3.64999L241.62 2.10999L246.97 0.98999L252.41 0.290009L257.88 0L263.38 0.149994L268.79 0.720001L274.16 1.72L279.38 3.13L284.52 4.97L286.87 5.97L290.46 7.70001L293.92 9.60999L297.25 11.7L300.44 13.97L305.02 17.75L309.3 21.93L313.26 26.53L316.92 31.54L317.02 32.03L316.76 32.46L301.58 43.74L301.29 43.81L301.04 43.65L298.65 40.45L296.04 37.45L293 34.44L289.71 31.66L285.34 28.56L280.83 25.97L276.18 23.91L271.39 22.37L266.49 21.35L261.45 20.85L256.28 20.87L250.97 21.4L245.83 22.48L240.64 24.24L235.56 26.64L230.74 29.58L226.05 33.15L221.76 37.16L217.91 41.56L214.56 46.26L208.44 56.29L201.69 68.16L201.6 68.66L201.83 69.1L205.31 72.89L208.21 76.95L210.54 81.35L212.24 85.96L213.31 90.87L213.71 95.93L213.42 101.1L212.44 106.34L211.37 109.92L210.03 113.31L208.41 116.5L206.53 119.51L204.72 121.91L202.72 124.17L200.52 126.29L198.13 128.28L194.44 130.87L190.63 133.04L186.71 134.77L182.68 136.08L179.51 136.79L176.74 137.12L172.49 137.37L159.57 137.61L116.59 137.58L116.06 137.23L107.11 117.29L107.09 117.24L107.14 117.01L107.36 116.9L164.01 116.86L172.02 116.75L176.05 116.43L177.7 116.02L181.23 114.66L184.39 112.75L187.22 110.31L189.53 107.45L191.29 104.28L192.4 100.88L192.82 97.47L192.53 94L191.86 91.55L190.78 89.15L189.35 86.92L187.5 84.79L184.83 82.56L181.88 80.98L179.09 80.14L176.08 79.81L160.53 79.66L132.49 79.71L132.39 79.7L132.1 79.47L132.09 79.09L140.66 60.21L141.24 59.54L142.1 59.28L168.8 59.4L173.09 59.33L176.4 58.96L179.06 58.23L181.21 57.12L183.05 55.62L185.08 53.14L186.61 50.14L187.65 46.9L188.17 43.8L188.19 40.84L187.69 38.03L186.92 35.87L185.82 33.81L184.39 31.84L182.64 29.96L180.54 28.25L178.25 26.94L174.91 25.84L171.23 25.46L121.51 25.35L92.31 25.53Z" fill="black"/>
<path d="M237.95 137.95L246.61 118.88L246.82 118.64L247.16 118.61L251.96 119.53L256.69 119.98L261.35 119.96L265.93 119.48L268.8 118.94L273.71 117.62L278.34 115.91L282.72 113.8L286.82 111.3L291.23 107.92L295.29 104.01L298.99 99.57L302.33 94.61L302.98 94.06L303.8 94.3L319.19 105L319.43 105.36L319.35 105.79L317.18 109.14L314.86 112.34L312.39 115.39L309.78 118.29L307 121.07L304.08 123.68L301.04 126.13L297.88 128.4L293.96 130.89L289.88 133.13L285.65 135.11L281.29 136.82L276.85 138.24L272.29 139.4L267.63 140.28L262.88 140.87L258.98 141.13L255.1 141.16L251.26 140.96L247.45 140.54L242.81 139.72L238.22 138.55L238.19 138.54L237.94 138.3L237.95 137.95Z" fill="#00B3FF"/>
</svg>
