<svg width="164" height="142" viewBox="0 0 164 142" fill="none" xmlns="http://www.w3.org/2000/svg">
<path fill-rule="evenodd" clip-rule="evenodd" d="M92.03 21.71L82.4258 0H60.83L60.27 0.169983L59.88 0.609985L0 132.43L0.00997925 132.88L0.369995 133.16L0.47998 133.17H21.62L22.32 132.96L22.8 132.41L70.11 28.25L70.42 27.74L70.73 27.57L71.04 27.74L71.35 28.26L92.8 76.01L92.85 76.6L92.29 76.8H67.56L67.06 76.93L66.72 77.34L57.92 96.7L57.87 97.26L58.41 97.45H124.83H124.88L125.09 97.08L123.42 92.87L92.03 21.71Z" fill="black"/>
<path d="M62.9219 133C62.5898 133 62.5508 132.785 62.8047 132.355L70.3242 119.592C70.5586 119.195 70.819 118.996 71.1055 118.996H72.4727C72.7396 118.996 72.9089 119.195 72.9805 119.592L75.1875 132.355C75.2591 132.785 75.1224 133 74.7773 133H73.8887C73.5436 133 73.3451 132.84 73.293 132.521L72.7363 129.289H66.7305L64.8262 132.521C64.6374 132.84 64.3672 133 64.0156 133H62.9219ZM67.6875 127.688H72.4531L71.7695 123.781C71.6849 123.312 71.6165 122.801 71.5645 122.248C71.5124 121.688 71.4863 121.167 71.4863 120.686H71.4473C71.3301 121.148 71.1478 121.62 70.9004 122.102C70.653 122.583 70.3438 123.143 69.9727 123.781L67.6875 127.688ZM77.3848 133C77.0592 133 76.9388 132.821 77.0234 132.463L80.002 119.533C80.0866 119.175 80.2917 118.996 80.6172 118.996H84.2305C86.0078 118.996 87.2415 119.325 87.9316 119.982C88.6217 120.633 88.9668 121.444 88.9668 122.414C88.9668 123.319 88.6543 124.042 88.0293 124.582C87.4108 125.116 86.6393 125.48 85.7148 125.676V125.705C86.3854 125.842 86.9811 126.171 87.502 126.691C88.0293 127.206 88.293 127.906 88.293 128.791C88.293 129.878 87.8014 130.852 86.8184 131.711C85.8353 132.57 84.2207 133 81.9746 133H77.3848ZM79.1426 131.398H82.0332C83.4004 131.398 84.4518 131.167 85.1875 130.705C85.9232 130.243 86.291 129.579 86.291 128.713C86.291 127.925 85.9557 127.362 85.2852 127.023C84.6211 126.685 83.7161 126.516 82.5703 126.516H80.2656L79.1426 131.398ZM80.5977 125.109H83.2441C84.1686 125.109 85.0345 124.862 85.8418 124.367C86.6556 123.872 87.0625 123.247 87.0625 122.492C87.0625 121.822 86.8249 121.34 86.3496 121.047C85.8743 120.747 85.054 120.598 83.8887 120.598H81.6328L80.5977 125.109ZM90.4219 127.336C90.4219 124.764 91.1055 122.684 92.4727 121.096C93.8464 119.501 95.7604 118.703 98.2148 118.703C99.4128 118.703 100.383 118.911 101.125 119.328C101.867 119.745 102.391 120.298 102.697 120.988C102.847 121.333 102.772 121.594 102.473 121.77L101.711 122.219C101.535 122.323 101.366 122.232 101.203 121.945C101.008 121.594 100.653 121.219 100.139 120.822C99.6243 120.425 98.9277 120.227 98.0488 120.227C96.4212 120.227 95.0768 120.822 94.0156 122.014C92.9544 123.205 92.4238 125.054 92.4238 127.561C92.4238 128.745 92.7363 129.745 93.3613 130.559C93.9863 131.366 95.0475 131.77 96.5449 131.77C97.4303 131.77 98.179 131.538 98.791 131.076C99.4095 130.607 99.888 130.139 100.227 129.67C100.5 129.292 100.754 129.178 100.988 129.328L101.867 129.895C102.082 130.031 102.056 130.292 101.789 130.676C101.275 131.424 100.581 132.049 99.709 132.551C98.8366 133.046 97.694 133.293 96.2812 133.293C94.3151 133.293 92.847 132.733 91.877 131.613C90.9069 130.487 90.4219 129.061 90.4219 127.336ZM112.033 127.658L113.908 119.533C113.993 119.175 114.198 118.996 114.523 118.996H115.422C115.747 118.996 115.868 119.175 115.783 119.533L113.977 127.365C113.56 129.188 113.544 130.38 113.928 130.939C114.312 131.493 115.093 131.77 116.271 131.77C117.222 131.77 118.075 131.493 118.83 130.939C119.592 130.38 120.181 129.188 120.598 127.365L122.404 119.533C122.489 119.175 122.694 118.996 123.02 118.996H123.918C124.243 118.996 124.364 119.175 124.279 119.533L122.404 127.658C121.929 129.722 121.167 131.177 120.119 132.023C119.071 132.87 117.671 133.293 115.92 133.293C114.624 133.293 113.534 132.87 112.648 132.023C111.763 131.177 111.558 129.722 112.033 127.658ZM125.959 120.676C125.601 120.676 125.458 120.529 125.529 120.236L125.715 119.436C125.78 119.143 125.992 118.996 126.35 118.996H136.682C137.04 118.996 137.186 119.143 137.121 119.436L136.936 120.236C136.864 120.529 136.649 120.676 136.291 120.676H132.062L129.348 132.463C129.263 132.821 129.058 133 128.732 133H127.834C127.508 133 127.388 132.821 127.473 132.463L130.188 120.676H125.959ZM136.506 133C136.18 133 136.06 132.821 136.145 132.463L139.123 119.533C139.208 119.175 139.413 118.996 139.738 118.996H140.637C140.962 118.996 141.083 119.175 140.998 119.533L138.02 132.463C137.935 132.821 137.73 133 137.404 133H136.506ZM141.701 133C141.376 133 141.255 132.821 141.34 132.463L144.318 119.533C144.403 119.175 144.608 118.996 144.934 118.996H145.832C146.158 118.996 146.278 119.175 146.193 119.533L143.459 131.398H149.934C150.292 131.398 150.435 131.545 150.363 131.838L150.197 132.561C150.132 132.854 149.921 133 149.562 133H141.701ZM152.805 131.906C152.479 131.587 152.414 131.307 152.609 131.066L153.166 130.383C153.368 130.135 153.648 130.178 154.006 130.51C154.429 130.907 154.888 131.216 155.383 131.438C155.878 131.659 156.509 131.77 157.277 131.77C157.928 131.77 158.479 131.678 158.928 131.496C159.377 131.307 159.774 131.037 160.119 130.686C160.471 130.327 160.646 129.885 160.646 129.357C160.646 129.077 160.604 128.788 160.52 128.488C160.441 128.189 160.272 127.925 160.012 127.697C159.758 127.469 159.475 127.294 159.162 127.17C158.804 127.027 158.423 126.89 158.02 126.76C157.616 126.623 157.167 126.431 156.672 126.184C156.255 125.975 155.897 125.712 155.598 125.393C155.298 125.074 155.061 124.693 154.885 124.25C154.709 123.807 154.621 123.335 154.621 122.834C154.621 121.916 154.914 121.102 155.5 120.393C156.086 119.676 156.74 119.217 157.463 119.016C158.186 118.807 158.856 118.703 159.475 118.703C160.34 118.703 161.066 118.811 161.652 119.025C162.238 119.24 162.772 119.533 163.254 119.904C163.573 120.152 163.628 120.412 163.42 120.686L162.854 121.418C162.704 121.613 162.479 121.587 162.18 121.34C161.945 121.145 161.561 120.933 161.027 120.705C160.493 120.477 159.937 120.363 159.357 120.363C158.986 120.363 158.586 120.425 158.156 120.549C157.727 120.673 157.342 120.926 157.004 121.311C156.665 121.688 156.496 122.15 156.496 122.697C156.496 122.984 156.535 123.26 156.613 123.527C156.691 123.788 156.835 124.016 157.043 124.211C157.258 124.406 157.486 124.562 157.727 124.68C158.104 124.862 158.492 125.018 158.889 125.148C159.292 125.279 159.657 125.409 159.982 125.539C160.503 125.747 160.979 126.018 161.408 126.35C161.844 126.682 162.157 127.102 162.346 127.609C162.535 128.111 162.629 128.589 162.629 129.045C162.629 129.963 162.382 130.731 161.887 131.35C161.392 131.968 160.783 132.447 160.061 132.785C159.338 133.124 158.358 133.293 157.121 133.293C156.053 133.293 155.171 133.163 154.475 132.902C153.778 132.642 153.221 132.31 152.805 131.906Z" fill="#00B3FF"/>
</svg>
